<?xml version="1.0" encoding="UTF-8" standalone="no"?>
<!-- Created with Inkscape (http://www.inkscape.org/) -->

<svg
   version="1.1"
   id="svg1"
   width="643"
   height="684"
   viewBox="0 0 643 684"
   sodipodi:docname="logo-personal.svg"
   inkscape:version="1.4.2 (f4327f4, 2025-05-13)"
   xmlns:inkscape="http://www.inkscape.org/namespaces/inkscape"
   xmlns:sodipodi="http://sodipodi.sourceforge.net/DTD/sodipodi-0.dtd"
   xmlns="http://www.w3.org/2000/svg"
   xmlns:svg="http://www.w3.org/2000/svg">
  <defs id="defs1"> 
  <linearGradient 
  id="logoGradient" 
  x1="0%" y1="0%" x2="100%" y2="0%"> 
  <stop offset="0%" stop-color="#60a5fa" /> 
  <stop offset="100%" stop-color="#a855f7" /> 
  </linearGradient> 
  </defs>
  <sodipodi:namedview
     id="namedview1"
     pagecolor="#ffffff"
     bordercolor="#000000"
     borderopacity="0.25"
     inkscape:showpageshadow="2"
     inkscape:pageopacity="0.0"
     inkscape:pagecheckerboard="0"
     inkscape:deskcolor="#d1d1d1"
     showgrid="false"
     inkscape:zoom="1.1798246"
     inkscape:cx="321.2342"
     inkscape:cy="342"
     inkscape:window-width="1920"
     inkscape:window-height="1009"
     inkscape:window-x="1358"
     inkscape:window-y="-8"
     inkscape:window-maximized="1"
     inkscape:current-layer="g1" />
  <g
     inkscape:groupmode="layer"
     inkscape:label="Image"
     id="g1">
    <path
       fill="url(#logoGradient)"
       d="m 218.32844,598.34108 c 0.003,-0.6875 1.79901,-2.77276 3.99165,-4.63391 2.19265,-1.86116 5.63045,-5.86043 7.63956,-8.88728 2.0091,-3.02685 4.74525,-8.47909 6.08033,-12.11609 2.03045,-5.53134 2.56862,-9.4745 3.29099,-24.11272 0.47498,-9.625 0.88367,-44.725 0.90821,-78 0.0255,-34.54148 -0.37758,-63.50346 -0.93939,-67.5 -0.54122,-3.85 -1.91803,-11.03288 -3.05959,-15.96195 -1.14156,-4.92908 -3.49046,-12.35408 -5.21977,-16.5 -1.72932,-4.14593 -5.14466,-11.13805 -7.58965,-15.53805 -2.44499,-4.4 -6.95687,-11.37069 -10.0264,-15.49041 -3.06952,-4.11973 -8.67185,-10.75322 -12.44961,-14.74108 -3.77776,-3.98787 -13.90276,-13.52932 -22.5,-21.20323 -8.59724,-7.67391 -18.55635,-17.3887 -22.13135,-21.58841 -3.575,-4.19972 -8.90045,-11.08758 -11.83434,-15.30636 -2.9339,-4.21878 -7.83303,-12.62051 -10.88698,-18.67051 -3.05395,-6.05 -6.44021,-13.475 -7.52504,-16.5 -1.08483,-3.025 -3.2372,-9.1 -4.78305,-13.5 -1.54585,-4.4 -4.16162,-13.4 -5.81281,-20 -1.65119,-6.6 -3.29596,-16.1625 -3.65505,-21.25 -0.35908,-5.0875 -0.28159,-9.24375 0.1722,-9.23612 0.45379,0.008 4.42507,3.21871 8.82507,7.13572 4.4,3.91702 21.275,17.71851 37.5,30.66999 16.225,12.95149 35.575,28.75253 43,35.11344 7.425,6.36091 19.74506,17.64067 27.3779,25.06613 7.63285,7.42546 17.55664,18.00084 22.05287,23.50084 4.49624,5.5 10.46017,13.18204 13.25319,17.07119 2.79302,3.88916 7.45696,10.86416 10.36432,15.5 2.90736,4.63585 7.41933,12.70381 10.02662,17.92881 2.60728,5.225 5.90827,12.39311 7.33554,15.92913 1.42726,3.53602 3.70264,10.73602 5.05639,16 1.35376,5.26398 3.04003,12.27087 3.74727,15.57087 0.98899,4.61463 1.2859,25.0489 1.2859,88.5 0,75.05148 0.1567,83.10943 1.73562,89.25002 0.95458,3.7125 3.13415,9.5205 4.84347,12.90666 1.96418,3.891 5.80859,8.82253 10.44679,13.40092 4.03641,3.98434 7.06934,7.51385 6.73986,7.84333 -0.32949,0.32949 -24.59907,0.59907 -53.9324,0.59907 -42.00268,0 -53.33227,-0.26556 -53.32832,-1.25 z m 240.50275,-1.33612 c -1.37927,-1.48826 -2.50777,-3.11208 -2.50777,-3.6085 0,-0.49642 -2.19997,-4.59321 -4.88883,-9.10398 -2.68885,-4.51077 -12.28343,-20.5764 -21.32128,-35.7014 -9.03784,-15.125 -19.38721,-32.675 -22.9986,-39 -3.61138,-6.325 -11.40855,-20.05 -17.32704,-30.5 -5.91848,-10.45 -11.66633,-20.575 -12.77299,-22.5 -1.10666,-1.925 -7.18843,-12.725 -13.51504,-24 -6.32661,-11.275 -17.57381,-31.075 -24.99378,-44 -7.41996,-12.925 -15.89645,-27.70011 -18.83664,-32.83359 -2.94019,-5.13347 -5.3458,-9.51536 -5.3458,-9.73752 0,-0.22216 -4.21239,-8.17205 -9.36087,-17.66641 -5.14847,-9.49436 -10.7613,-19.62414 -12.47295,-22.51062 -1.71165,-2.88648 -5.89814,-9.41148 -9.30332,-14.5 -3.40517,-5.08852 -10.04971,-14.20186 -14.76563,-20.25186 -4.71593,-6.05 -13.97954,-16.57123 -20.58582,-23.3805 -6.78419,-6.99267 -19.40959,-18.27911 -29.01141,-25.93468 -9.35,-7.45479 -21.275,-16.98671 -26.5,-21.18203 -5.225,-4.19533 -15.8,-12.30297 -23.5,-18.01699 -7.7,-5.71401 -18.77794,-15.13587 -24.61766,-20.93746 -5.83971,-5.80158 -13.2934,-14.18676 -16.56374,-18.63373 -3.27035,-4.44696 -8.00498,-12.09696 -10.5214,-17 -2.51643,-4.90303 -5.71348,-12.102 -7.10455,-15.9977 -1.39108,-3.8957 -3.72179,-12.871763 -5.17935,-19.946791 -2.24888,-10.916114 -2.73911,-16.391835 -3.23795,-36.166908 -0.49743,-19.719309 -0.36987,-23.303213 0.82944,-23.303213 0.7795,0 9.06231,7.689776 18.40625,17.08839 9.34393,9.398615 23.28896,22.741351 30.98896,29.650525 7.7,6.909174 21.65,18.690124 31,26.179887 9.35,7.48976 29.825,23.3606 45.5,35.26854 15.675,11.90793 33.45,25.75522 39.5,30.77176 6.05,5.01655 14.99935,13.04047 19.88743,17.83094 4.88809,4.79048 12.58307,12.98496 17.09997,18.20996 4.5169,5.225 11.34935,13.775 15.18323,19 3.83388,5.225 8.69468,12.2 10.80178,15.5 2.1071,3.3 4.83791,7.575 6.06846,9.5 1.23056,1.925 5.38659,8.9 9.23561,15.5 3.84903,6.6 13.95875,24.6 22.46605,40 8.50729,15.4 18.29063,33.175 21.74076,39.5 3.45012,6.325 16.39418,29.8375 28.76459,52.25 12.37041,22.4125 22.88776,40.75 23.37189,40.75 0.48413,0 0.9232,-0.7875 0.97572,-1.75 0.0525,-0.9625 0.0354,-10.3 -0.0379,-20.75 -0.089,-12.67309 -0.65538,-21.66396 -1.70092,-27 -0.86213,-4.4 -2.66753,-10.7 -4.01199,-14 -1.34447,-3.3 -3.86735,-8.925 -5.60639,-12.5 -1.73905,-3.575 -5.14618,-9.875 -7.5714,-14 -2.42523,-4.125 -6.0989,-10.2 -8.16371,-13.5 -2.06481,-3.3 -7.94064,-12.75 -13.05739,-21 -5.11675,-8.25 -11.65982,-19.95 -14.54015,-26 -2.88033,-6.05 -6.39991,-15.13813 -7.82129,-20.19584 -2.19325,-7.80427 -2.58433,-11.2244 -2.58433,-22.60103 0,-10.87057 0.46397,-15.28037 2.45386,-23.32273 1.34962,-5.45464 3.44419,-12.15918 4.6546,-14.89897 1.21041,-2.73978 3.35566,-6.78143 4.76722,-8.98143 1.41157,-2.2 3.4795,-4.94215 4.5954,-6.09366 1.11591,-1.15151 3.26642,-2.89077 4.77892,-3.86501 1.61056,-1.0374 2.75,-2.67022 2.75,-3.94073 0,-1.30286 -1.09844,-2.82363 -2.75,-3.80732 -1.5125,-0.90087 -6.06522,-4.63196 -10.11716,-8.29131 -4.05195,-3.65936 -9.50351,-9.09468 -12.11458,-12.07851 -2.61108,-2.98382 -6.0179,-7.25844 -7.57072,-9.49916 -2.35284,-3.39515 -2.5837,-4.23304 -1.38542,-5.0283 0.88232,-0.58557 21.52929,-0.8298 53.43788,-0.63213 50.23111,0.31118 52.32317,0.40026 61.5,2.61873 5.225,1.26313 12.67952,3.41129 16.56559,4.77369 3.88607,1.3624 10.38053,4.30761 14.43213,6.54491 4.0516,2.2373 9.44161,6.14479 11.9778,8.68331 2.53619,2.53852 7.47761,8.75379 10.98095,13.81172 3.92816,5.67127 7.36127,9.55869 8.95661,10.14183 1.42281,0.52009 4.69591,1.69561 7.27356,2.61229 2.57765,0.91667 6.45515,2.87784 8.61666,4.35816 2.16151,1.48032 5.2789,3.8485 6.92752,5.26263 1.64863,1.41413 4.42164,4.53711 6.16226,6.93995 1.74061,2.40285 4.04844,7.32084 5.12851,10.92886 1.08008,3.60803 2.35765,10.18792 2.83905,14.62198 0.49833,4.59001 0.50069,12.4919 0.005,18.34848 -0.47839,5.6576 -1.16256,10.76024 -1.52037,11.33919 -0.38654,0.62544 -1.70479,-0.16522 -3.24815,-1.94819 -1.42867,-1.65046 -4.62259,-4.58908 -7.09759,-6.53026 -2.475,-1.94117 -7.08098,-4.97308 -10.23553,-6.73757 -3.15454,-1.76449 -8.55454,-4.06544 -12,-5.11323 -3.92041,-1.19223 -9.25792,-1.90531 -14.26447,-1.9057 -4.54085,-3.6e-4 -11.58857,0.85967 -16.29935,1.98901 -4.56464,1.09431 -10.94065,3.30015 -14.16892,4.90186 -3.22827,1.60171 -7.59356,4.07836 -9.70065,5.50367 -2.10709,1.42531 -6.60579,5.33805 -9.9971,8.69499 -3.39132,3.35694 -7.51593,8.64429 -9.16581,11.74967 -1.64988,3.10538 -3.82277,8.57115 -4.82864,12.14615 -1.7353,6.16745 -1.82914,14.30206 -1.8342,159 l -0.005,152.5 -3.74223,0.3099 c -3.01133,0.24938 -4.23203,-0.21859 -6.25,-2.39602 z M 500.7314,204.638 c 2.10697,-1.0742 4.67712,-2.71894 5.71144,-3.65499 1.03432,-0.93605 1.88058,-2.33858 1.88058,-3.11674 0,-0.77816 -1.37121,-3.40783 -3.04714,-5.84371 -1.67593,-2.43589 -4.48843,-5.20021 -6.25,-6.14295 -2.35419,-1.2599 -6.25002,-1.80117 -14.70286,-2.04279 -6.325,-0.18079 -12.10896,0.0827 -12.85324,0.5856 -1.10466,0.74635 -1.12217,1.351 -0.0953,3.29149 0.69184,1.30744 3.68223,5.14863 6.6453,8.53598 2.96307,3.38734 7.28098,7.07741 9.59535,8.20015 2.31437,1.12274 5.35029,2.06378 6.7465,2.0912 1.39621,0.0274 4.26245,-0.82905 6.36942,-1.90324 z"
       id="path1" />
  </g>
</svg>
